<svg xmlns="http://www.w3.org/2000/svg" width="24.217" height="19.591" viewBox="0 0 24.217 19.591"><defs><style>.a{fill:#424242;}</style></defs><path class="a" d="M30.572,23.718H12.66V17.141c0-.786.1-.872.506-.872.135,0,.371.221.584.594a1.289,1.289,0,0,0-.2.361,1.263,1.263,0,0,0,.06.973l.1.194a.556.556,0,0,0,.323.285.577.577,0,0,0,.182.031.558.558,0,0,0,.247-.057l1.279-.627A.562.562,0,0,0,16,17.272l-.1-.2a1.265,1.265,0,0,0-1.141-.713,2,2,0,0,0-1.593-1.22c-1.63,0-1.63,1.5-1.63,2v6.576H7.48a.562.562,0,0,0,0,1.124H9.437v3.691A5.063,5.063,0,0,0,14.1,33.572a1.343,1.343,0,0,0,2.659.021h4.427a1.343,1.343,0,0,0,2.657,0,5.063,5.063,0,0,0,5-5.056V24.842h1.724a.562.562,0,0,0,0-1.124ZM15.433,33.611a.219.219,0,0,1-.089-.019h.179A.244.244,0,0,1,15.433,33.611Zm6.995-.02h.179a.219.219,0,0,1-.089.019A.216.216,0,0,1,22.428,33.592Zm5.3-5.059a3.939,3.939,0,0,1-3.935,3.935H14.5a3.939,3.939,0,0,1-3.935-3.935V24.842H27.725Z" transform="translate(-6.918 -15.144)"/></svg>