<svg xmlns="http://www.w3.org/2000/svg" width="22.555" height="16.996" viewBox="0 0 22.555 16.996"><path d="M10.685,17.515v5.521l-2.6,3.991A.511.511,0,0,0,8,27.3v3.605a.547.547,0,0,0,.537.515h.269v2.06A.547.547,0,0,0,9.343,34h2.148a.547.547,0,0,0,.537-.515v-2.06h14.5v2.06a.547.547,0,0,0,.537.515h2.148a.547.547,0,0,0,.537-.515v-2.06h.269a.547.547,0,0,0,.537-.515V27.3a.511.511,0,0,0-.084-.274l-2.6-3.991V17.515A.547.547,0,0,0,27.333,17H11.222A.573.573,0,0,0,10.685,17.515Zm1.074.515H26.8v4.635H25.722V21.12a.547.547,0,0,0-.537-.515h-4.3a.547.547,0,0,0-.537.515v1.545H18.2V21.12a.547.547,0,0,0-.537-.515h-4.3a.547.547,0,0,0-.537.515v1.545H11.759Zm2.148,3.605h3.222v1.03H13.907Zm7.518,0h3.222v1.03H21.425Zm5.613,2.06,2.014,3.09H9.5l2.014-3.09m-2.442,4.12H29.481v2.575H9.074Zm.806,3.605h1.074v1.545H9.88Zm17.722,0h1.074v1.545H27.6Z" transform="translate(-8 -17)"/></svg>