<svg xmlns="http://www.w3.org/2000/svg" width="21.921" height="24.156" viewBox="0 0 21.921 24.156"><defs><style></style></defs><g transform="translate(0 0)"><path class="a" d="M15.423,24.155c-.151-.04-.3-.075-.451-.118a3.026,3.026,0,0,1-2.182-2.7c0-.055-.008-.109-.015-.2H6.229a1.163,1.163,0,0,1-1.312-1.07,3.624,3.624,0,0,1,.246-2.215,4.719,4.719,0,0,1,.613-.821h0a.2.2,0,0,1,.054-.047A5.184,5.184,0,0,0,8.1,13.21c.162-.855.236-1.727.389-2.585A15.645,15.645,0,0,1,9.457,6.9a6.353,6.353,0,0,1,4-3.546l.245-.08h0a.218.218,0,0,0,.047-.041A2.2,2.2,0,0,1,13.6,1.746,2.239,2.239,0,0,1,15.319.05c.051-.012.1-.033.151-.05h.661a.412.412,0,0,0,.082.04,2.252,2.252,0,0,1,1.669,3.093c-.013.035-.025.072-.04.117.287.1.572.189.844.3a6.515,6.515,0,0,1,3.907,4.655,31.028,31.028,0,0,1,.761,4.24,9.979,9.979,0,0,0,.684,2.565h0a3.6,3.6,0,0,0,1.19,1.552c.081.062.162.125.243.189a3.215,3.215,0,0,1,1.185,3.43,1.124,1.124,0,0,1-1.235.952H18.841a6.816,6.816,0,0,1-.138.773,2.97,2.97,0,0,1-2.42,2.205.629.629,0,0,0-.106.042Zm-9.1-4.547h18.9A1.709,1.709,0,0,0,24.5,17.9h0a4.723,4.723,0,0,1-1.758-2.081,11.336,11.336,0,0,1-.9-3.282,29.094,29.094,0,0,0-.714-3.963,4.988,4.988,0,0,0-3.18-3.7,6.127,6.127,0,0,0-3.067-.294,4.9,4.9,0,0,0-4.171,3.234,15.3,15.3,0,0,0-.806,3.529,20.09,20.09,0,0,1-.665,3.466,5.662,5.662,0,0,1-2.18,3.127h0a1.686,1.686,0,0,0-.326.269,1.085,1.085,0,0,0-.257.41c-.075.318-.1.646-.152.993Zm7.979,1.54a1.492,1.492,0,1,0,2.984,0H14.305Zm1.5-19.639a.755.755,0,1,0,.746.755.756.756,0,0,0-.746-.755Z" transform="translate(-4.846)"/></g></svg>