<svg xmlns="http://www.w3.org/2000/svg" width="24" height="24" viewBox="0 0 24 24"><defs><style>.a{fill:#424242;}</style></defs><path class="a" d="M34.734,53.848a.7.7,0,0,1-.493-.2l-2.789-2.789a.7.7,0,1,1,.986-.986L34.7,52.131l4.39-5.018a.7.7,0,0,1,1.05.919L35.259,53.61a.7.7,0,0,1-.5.238h-.024Z" transform="translate(-23.387 -35.265)"/><path class="a" d="M22.122,28.855H1.878A1.884,1.884,0,0,1,0,26.969V8.137A1.885,1.885,0,0,1,1.879,6.25H22.121A1.885,1.885,0,0,1,24,8.137V26.969a1.884,1.884,0,0,1-1.878,1.887ZM1.879,7.757a.381.381,0,0,0-.379.381V26.969a.379.379,0,0,0,.378.38H22.122a.379.379,0,0,0,.378-.38V8.137a.381.381,0,0,0-.379-.381Z" transform="translate(0 -4.855)"/><path class="a" d="M23.25,26.395H.75A.7.7,0,1,1,.75,25h22.5a.7.7,0,1,1,0,1.395Z" transform="translate(0 -18.972)"/><path class="a" d="M16.322,4.184a.7.7,0,0,1-.7-.7V.7A.7.7,0,0,1,17.02.7V3.486A.7.7,0,0,1,16.322,4.184Z" transform="translate(-11.857)"/><path class="a" d="M78.822,4.184a.7.7,0,0,1-.7-.7V.7A.7.7,0,1,1,79.52.7V3.486A.7.7,0,0,1,78.822,4.184Z" transform="translate(-59.287)"/></svg>