<svg xmlns="http://www.w3.org/2000/svg" width="17.5" height="14.583" viewBox="0 0 17.5 14.583"><defs><style>.a{fill:#344573;}</style></defs><path class="a" d="M10.083,29.583A2.093,2.093,0,0,1,8,27.5V19.167a2.093,2.093,0,0,1,2.083-2.083h2.494l.677-1.686a.624.624,0,0,1,.579-.4h5.833a.624.624,0,0,1,.579.4l.677,1.686h2.494A2.093,2.093,0,0,1,25.5,19.167V27.5a2.093,2.093,0,0,1-2.083,2.083Zm0-1.25H23.417a.818.818,0,0,0,.833-.833V19.167a.818.818,0,0,0-.833-.833H20.5a.625.625,0,0,1-.579-.391l-.677-1.693H14.256l-.677,1.693a.625.625,0,0,1-.579.391H10.083a.818.818,0,0,0-.833.833V27.5a.818.818,0,0,0,.833.833Zm6.667-1.042a3.958,3.958,0,1,1,3.958-3.958A3.968,3.968,0,0,1,16.75,27.292Zm0-1.25a2.708,2.708,0,1,0-2.708-2.708A2.7,2.7,0,0,0,16.75,26.042Z" transform="translate(-8 -15)"/></svg>