<svg xmlns="http://www.w3.org/2000/svg" width="21.061" height="18.381" viewBox="0 0 21.061 18.381"><defs><style>.a{fill:#424242;}</style></defs><path class="a" d="M4.271,12.013H16.79L15.258,8.3H5.8Zm-.8.53L5.449,7.771H15.611l1.974,4.772Zm9.073,4.831H8.513a.666.666,0,0,0-.677.677v.972a.685.685,0,0,0,.677.677h4.035a.685.685,0,0,0,.677-.677V18.05a.666.666,0,0,0-.677-.677Zm0,.53a.139.139,0,0,1,.147.147v.972a.139.139,0,0,1-.147.147H8.513a.139.139,0,0,1-.147-.147V18.05a.139.139,0,0,1,.147-.147Zm3.417,3.122V22.94a1.786,1.786,0,0,0,1.8,1.8,1.8,1.8,0,0,0,1.8-1.8V21.025h1.5V14.4a2.437,2.437,0,0,0-2.091-2.386l-2-4.713a2.053,2.053,0,0,0-1.443-.943H5.509A1.994,1.994,0,0,0,4.094,7.3l-2,4.713A2.437,2.437,0,0,0,0,14.4v6.628H1.5V22.94a1.8,1.8,0,0,0,1.8,1.8,1.786,1.786,0,0,0,1.8-1.8V21.025ZM15.494,6.886a1.424,1.424,0,0,1,1,.677l2.121,4.978A1.862,1.862,0,0,1,20.53,14.4v6.1H19V22.94a1.252,1.252,0,1,1-2.5,0V20.495H4.564V22.94A1.258,1.258,0,0,1,3.3,24.207,1.277,1.277,0,0,1,2.03,22.94V20.495H.528V14.4a1.862,1.862,0,0,1,1.914-1.856L4.534,7.563a1.538,1.538,0,0,1,1.031-.677Zm2.533,7.895H15.876a.7.7,0,0,0-.707.707v1.885a.68.68,0,0,0,.707.707h2.151a.7.7,0,0,0,.707-.707V15.488A.717.717,0,0,0,18.027,14.781Zm-2.151.53h2.151a.19.19,0,0,1,.177.177v1.885a.17.17,0,0,1-.177.177H15.876a.157.157,0,0,1-.177-.177V15.488A.17.17,0,0,1,15.876,15.311Zm-12.843-.53H5.184a.717.717,0,0,1,.707.707v1.885a.7.7,0,0,1-.707.707H3.033a.7.7,0,0,1-.707-.707V15.488A.717.717,0,0,1,3.033,14.781Zm2.151.53H3.033a.19.19,0,0,0-.177.177v1.885a.17.17,0,0,0,.177.177H5.184a.17.17,0,0,0,.177-.177V15.488A.19.19,0,0,0,5.184,15.311Z" transform="translate(0 -6.355)"/></svg>