<svg xmlns="http://www.w3.org/2000/svg" width="18.134" height="18.133" viewBox="0 0 18.134 18.133"><defs><style>.a{fill:#344573;}</style></defs><path class="a" d="M24.084,14.979A9.069,9.069,0,1,0,30.5,17.635a9.038,9.038,0,0,0-6.414-2.656Zm-.413.526c.051,0,.1,0,.154,0v1.287a.261.261,0,0,0,.259.263.26.26,0,0,0,.185-.078.256.256,0,0,0,.074-.185V15.506a8.558,8.558,0,0,1,8.284,8.284H31.34a.389.389,0,0,0-.049,0,.26.26,0,1,0,.049.518h1.287a8.527,8.527,0,0,1-8.284,8.284V31.3a.261.261,0,0,0-.083-.2.266.266,0,0,0-.208-.066.259.259,0,0,0-.227.267V32.59a8.527,8.527,0,0,1-8.284-8.284h1.288a.259.259,0,0,0,.185-.443.26.26,0,0,0-.185-.075H15.542a8.538,8.538,0,0,1,8.13-8.284Zm3.984,4.656h0a.249.249,0,0,0-.049.016l-7.774,3.369a.259.259,0,0,0,.008.478l3,1.247,1.255,3.02h0a.26.26,0,0,0,.478,0l3.37-7.774a.259.259,0,0,0-.291-.356Zm-.437.753L24.352,27.53l-1.06-2.551a.266.266,0,0,0-.146-.138L20.6,23.781Z" transform="translate(-15.02 -14.979)"/></svg>