<svg xmlns="http://www.w3.org/2000/svg" width="16" height="15.388" viewBox="0 0 16 15.388"><defs><style>.a{fill:#344573;}</style></defs><g transform="translate(-5 -6.723)"><path class="a" d="M17.929,6.723h-.89V8.2H8.961V6.723h-.89V8.2H5v13.9H21V8.205H17.929Zm2.119,14.435H5.953V12.421h14.1Zm0-12v2.312H5.953V9.157H8.071v.9h.89v-.9h8.078v.9h.89v-.9Z"/><path class="a" d="M20.805,45.2h1.333v1.333H20.805Z" transform="translate(-12.995 -31.636)"/><path class="a" d="M37.77,45.2H39.1v1.333H37.77Z" transform="translate(-26.944 -31.636)"/><path class="a" d="M54.73,45.2h1.333v1.333H54.73Z" transform="translate(-40.889 -31.636)"/><path class="a" d="M71.695,45.2h1.333v1.333H71.695Z" transform="translate(-54.838 -31.636)"/><path class="a" d="M20.805,59.664h1.333V61H20.805Z" transform="translate(-12.995 -43.53)"/><path class="a" d="M37.77,59.664H39.1V61H37.77Z" transform="translate(-26.944 -43.53)"/><path class="a" d="M54.73,59.664h1.333V61H54.73Z" transform="translate(-40.889 -43.53)"/><path class="a" d="M71.695,59.664h1.333V61H71.695Z" transform="translate(-54.838 -43.53)"/><path class="a" d="M20.805,74.129h1.333v1.333H20.805Z" transform="translate(-12.995 -55.423)"/><path class="a" d="M37.77,74.129H39.1v1.333H37.77Z" transform="translate(-26.944 -55.423)"/><path class="a" d="M54.73,74.129h1.333v1.333H54.73Z" transform="translate(-40.889 -55.423)"/></g></svg>