<svg xmlns="http://www.w3.org/2000/svg" width="20" height="20" viewBox="0 0 20 20"><defs><style>.a{fill:#344573;}</style></defs><g transform="translate(-11.63 -12.731)"><path class="a" d="M47.956,14.073l-.979-.976a1.241,1.241,0,0,0-.885-.366,1.256,1.256,0,0,0-.885.363l-9.188,9.17a.452.452,0,0,0-.124.231l-.531,2.66a.443.443,0,0,0,.124.409.457.457,0,0,0,.321.132.525.525,0,0,0,.089-.008l2.637-.534a.451.451,0,0,0,.228-.124l9.193-9.185a1.254,1.254,0,0,0,0-1.772Zm-.539.884a.346.346,0,0,1-.1.244l-.818.818-1.465-1.467.818-.818a.34.34,0,0,1,.241-.1.346.346,0,0,1,.244.1l.979.976a.359.359,0,0,1,.1.244Zm-1.561,1.7-7.637,7.632-1.833.371.371-1.856,7.632-7.614Z" transform="translate(-16.691)"/><path class="a" d="M29.286,28.013h-.8a.079.079,0,0,0-.081.081V38.281a.12.12,0,0,1-.119.119H12.711a.12.12,0,0,1-.121-.121V22.7a.12.12,0,0,1,.119-.119H22.9a.079.079,0,0,0,.081-.081v-.8a.079.079,0,0,0-.081-.081H12.708A1.077,1.077,0,0,0,11.63,22.7V38.278a1.083,1.083,0,0,0,1.081,1.081H28.29a1.083,1.083,0,0,0,1.081-1.081V28.093a.084.084,0,0,0-.084-.08Z" transform="translate(0 -6.628)"/></g></svg>