<svg xmlns="http://www.w3.org/2000/svg" width="20.534" height="13.287" viewBox="0 0 20.534 13.287"><defs><style></style></defs><g transform="translate(-14.582 -27.082)"><path class="a" d="M24.849,27.082c-6.039,0-10.267,6.644-10.267,6.644s3.08,6.644,10.267,6.644c7.247,0,10.267-6.644,10.267-6.644S30.949,27.082,24.849,27.082Zm0,10.871a4.227,4.227,0,1,1,4.227-4.227A4.2,4.2,0,0,1,24.849,37.953Z"/><path class="a" d="M47.374,45.562a1.812,1.812,0,1,1-1.812-1.812,1.811,1.811,0,0,1,1.812,1.812" transform="translate(-20.713 -11.836)"/></g></svg>