<svg xmlns="http://www.w3.org/2000/svg" width="27.226" height="27.226" viewBox="0 0 27.226 27.226"><defs><style>.a{fill:#fff;}</style></defs><path class="a" d="M19.613,6A13.613,13.613,0,1,0,33.226,19.613,13.613,13.613,0,0,0,19.613,6Zm0,26.3A12.685,12.685,0,1,1,32.3,19.613,12.7,12.7,0,0,1,19.613,32.3Z" transform="translate(-6 -6)"/><path class="a" d="M41.178,34.086a.475.475,0,0,0-.464.464V40L29.545,28.826H34.99a.464.464,0,0,0,0-.928h-6.56a.23.23,0,0,0-.155.031c-.123.062-.216.123-.248.248a.33.33,0,0,0-.031.155V34.89a.464.464,0,0,0,.928,0V29.476L40.064,40.646H34.618a.464.464,0,1,0,0,.928h6.559a.23.23,0,0,0,.155-.031c.123-.062.216-.123.248-.248a.33.33,0,0,0,.031-.155V34.55a.431.431,0,0,0-.433-.464Z" transform="translate(-21.191 -21.123)"/></svg>