<svg xmlns="http://www.w3.org/2000/svg" width="26.898" height="25.002" viewBox="0 0 26.898 25.002"><defs><style></style></defs><path class="a" d="M7.107,20.779a.3.3,0,0,0,.394.459l1.6-1.378v13.75a.312.312,0,0,0,.3.3h21a.312.312,0,0,0,.3-.3V19.861l1.6,1.378a.3.3,0,1,0,.394-.459q-6.306-5.392-12.6-10.8a.305.305,0,0,0-.253-.066.3.3,0,0,0-.141.066l-5.8,4.977S7.977,20.035,7.107,20.779Zm6.2-5.314-3,2.578Zm6.6-4.855,10.2,8.745V33.311H9.7V19.345c3.408-2.915,6.791-5.819,10.2-8.735Zm-2.39,7.714a2.935,2.935,0,0,0-.534.037A3.534,3.534,0,0,0,14.972,19.5a4.04,4.04,0,0,0-1.05,2.259,2.7,2.7,0,0,0,.656,2.193l4.706,4.94c.084.088.3.327.4.431a.313.313,0,0,0,.431,0c.1-.1.319-.343.4-.431l4.706-4.94a2.7,2.7,0,0,0,.656-2.193,4.04,4.04,0,0,0-1.05-2.259,3.378,3.378,0,0,0-3.061-1.119,2.6,2.6,0,0,0-1.017.435l-.853.581-.853-.581a2.819,2.819,0,0,0-1.537-.487Zm-.019.581a2.256,2.256,0,0,1,1.218.4L19.733,20a.309.309,0,0,0,.337,0l1.022-.694a2.445,2.445,0,0,1,3.3.59,3.473,3.473,0,0,1,.89,1.921,2.1,2.1,0,0,1-.487,1.715l-4.716,4.93c-.048.05-.108.12-.178.2-.07-.077-.13-.146-.178-.2l-4.716-4.93a2.1,2.1,0,0,1-.487-1.715,3.473,3.473,0,0,1,.89-1.921,2.938,2.938,0,0,1,1.65-.965,2.326,2.326,0,0,1,.431-.028Z" transform="translate(-6.453 -9.408)"/></svg>