<svg xmlns="http://www.w3.org/2000/svg" width="16.905" height="24" viewBox="0 0 16.905 24"><defs><style></style></defs><path class="a" d="M27.453,6A8.444,8.444,0,0,0,19,14.419c0,3.346,2.046,7.141,4.047,10.157a50.821,50.821,0,0,0,4,5.24.546.546,0,0,0,.818,0,50.805,50.805,0,0,0,4-5.24c2-3.015,4.047-6.811,4.047-10.157A8.444,8.444,0,0,0,27.453,6Zm0,1.091a7.336,7.336,0,0,1,7.362,7.328c0,2.884-1.908,6.609-3.86,9.552a44.25,44.25,0,0,1-3.5,4.627,44.24,44.24,0,0,1-3.5-4.627c-1.952-2.943-3.86-6.668-3.86-9.552A7.336,7.336,0,0,1,27.453,7.091Zm0,3.434a3.928,3.928,0,1,0,3.928,3.928A3.936,3.936,0,0,0,27.453,10.525Zm0,1.091a2.837,2.837,0,1,1-2.837,2.837A2.828,2.828,0,0,1,27.453,11.615Z" transform="translate(-19 -6)"/></svg>