<?xml version="1.0" standalone="no"?>
<!DOCTYPE svg PUBLIC "-//W3C//DTD SVG 20010904//EN"
 "http://www.w3.org/TR/2001/REC-SVG-20010904/DTD/svg10.dtd">
<svg version="1.0" xmlns="http://www.w3.org/2000/svg"
 width="190.000000pt" height="157.000000pt" viewBox="0 0 190.000000 157.000000"
 preserveAspectRatio="xMidYMid meet">

<g transform="translate(0.000000,157.000000) scale(0.100000,-0.100000)"
fill="#000000" stroke="none">
<path d="M0 850 l0 -719 118 -3 117 -3 3 -62 3 -62 106 65 106 64 724 0 723 0
0 720 0 720 -950 0 -950 0 0 -720z m358 508 c8 -11 35 -69 103 -225 l18 -43
-45 0 c-38 0 -46 3 -54 25 -9 23 -15 25 -65 25 -49 0 -57 -3 -67 -25 -9 -21
-18 -25 -54 -25 l-43 0 51 113 c27 61 55 124 60 140 8 23 16 27 48 27 21 0 42
-6 48 -12z m381 -12 c22 -20 28 -70 12 -95 -7 -10 -3 -23 10 -39 22 -29 23
-42 8 -76 -16 -35 -57 -46 -165 -46 l-94 0 0 141 0 141 104 -4 c85 -3 108 -7
125 -22z m306 10 c48 -20 75 -68 75 -133 0 -63 -28 -102 -92 -128 -179 -71
-301 170 -133 263 28 16 110 15 150 -2z m213 -71 c1 -44 4 -90 7 -101 5 -24
31 -34 60 -24 18 6 21 19 25 106 l5 99 40 0 40 0 3 -90 c2 -70 -2 -98 -15
-125 -50 -98 -214 -86 -243 18 -11 42 -14 185 -3 196 4 4 23 6 43 4 l35 -3 3
-80z m462 50 c0 -34 -1 -35 -40 -35 l-40 0 0 -105 0 -105 -45 0 -45 0 0 105 0
105 -40 0 c-39 0 -40 1 -40 35 l0 35 125 0 125 0 0 -35z m-119 -381 c49 -41
89 -79 89 -84 0 -5 -10 -10 -22 -12 -21 -3 -23 -9 -26 -76 l-3 -73 -142 3
-142 3 -3 73 c-3 64 -5 72 -22 72 -11 0 -20 4 -20 9 0 13 172 160 188 161 8 0
54 -34 103 -76z m-1191 1 c0 -34 -1 -35 -40 -35 l-40 0 0 -105 0 -105 -45 0
-45 0 0 105 0 105 -40 0 c-39 0 -40 1 -40 35 l0 35 125 0 125 0 0 -35z m120
-105 l0 -140 -40 0 -40 0 0 133 c0 74 3 137 7 140 3 4 21 7 40 7 l33 0 0 -140z
m179 70 c23 -38 45 -71 50 -74 4 -3 28 27 52 67 39 63 48 72 77 75 l32 3 0
-140 0 -141 -35 0 -35 0 0 68 -1 67 -35 -58 c-24 -38 -42 -57 -53 -55 -9 2
-31 25 -48 52 l-33 48 0 -61 0 -61 -40 0 -40 0 0 140 0 140 34 0 c31 0 37 -5
75 -70z m501 35 l0 -34 -67 -3 c-53 -2 -68 -6 -68 -18 0 -11 14 -16 58 -18 56
-3 57 -4 57 -32 0 -28 -1 -29 -57 -32 -50 -3 -58 -6 -58 -23 0 -18 8 -20 73
-23 l72 -3 0 -29 0 -30 -115 0 -115 0 0 133 c0 74 3 137 7 140 3 4 53 7 110 7
l103 0 0 -35z m-535 -364 c62 -35 85 -122 51 -189 -46 -89 -188 -103 -256 -26
-114 130 50 302 205 215z m947 7 c15 -7 16 -12 6 -36 -7 -15 -13 -28 -14 -30
-1 -1 -22 3 -47 10 -37 9 -49 9 -61 -1 -23 -19 -12 -28 49 -41 88 -18 120 -79
73 -135 -29 -34 -87 -47 -152 -34 -63 12 -73 21 -57 55 10 22 15 25 39 18 15
-4 43 -8 62 -8 56 -1 45 25 -18 44 -87 25 -116 81 -69 135 12 15 38 30 57 35
38 8 104 3 132 -12z m-1212 -23 c0 -34 -1 -35 -40 -35 l-40 0 0 -106 0 -105
-42 3 -43 3 -3 103 -3 102 -39 0 c-39 0 -40 1 -40 35 l0 35 125 0 125 0 0 -35z
m470 -67 c3 -53 8 -100 12 -103 9 -10 57 -10 66 0 4 3 9 50 12 103 l5 97 40 0
40 0 3 -81 c5 -144 -31 -197 -132 -197 -104 0 -136 46 -136 193 l0 91 43 -3
42 -3 5 -97z m435 87 c57 -28 73 -102 31 -152 l-24 -28 24 -35 c13 -19 24 -38
24 -42 0 -4 -17 -8 -39 -8 -32 0 -43 6 -65 35 -15 19 -36 35 -47 35 -15 0 -19
-7 -19 -35 0 -34 -1 -35 -40 -35 l-40 0 0 140 0 140 81 0 c52 0 92 -5 114 -15z"/>
<path d="M302 1245 c-17 -37 -15 -47 11 -43 17 2 21 9 19 28 -4 37 -17 44 -30
15z"/>
<path d="M597 1303 c-4 -3 -7 -15 -7 -25 0 -14 8 -18 40 -18 43 0 66 24 39 41
-17 10 -63 12 -72 2z"/>
<path d="M590 1175 c0 -25 2 -26 48 -23 39 3 47 6 47 23 0 17 -8 20 -47 23
-46 3 -48 2 -48 -23z"/>
<path d="M916 1278 c-37 -52 -5 -121 54 -121 62 0 94 79 50 123 -28 28 -84 27
-104 -2z"/>
<path d="M537 522 c-22 -25 -22 -85 1 -104 28 -25 52 -29 81 -13 71 36 47 135
-32 135 -20 0 -41 -8 -50 -18z"/>
<path d="M1200 504 c0 -34 1 -35 36 -32 71 6 68 68 -2 68 -32 0 -34 -2 -34
-36z"/>
</g>
</svg>
