<svg xmlns="http://www.w3.org/2000/svg" width="17" height="17" viewBox="0 0 17 17"><defs><style></style></defs><path class="a" d="M7.739,11A1.87,1.87,0,0,0,6,12.966v8.719a1.87,1.87,0,0,0,1.739,1.962h1.1l-.332,3.638a.672.672,0,0,0,.327.656.53.53,0,0,0,.657-.124L13.2,23.647h1.5v.45a1.447,1.447,0,0,0,1.346,1.512h2.825l1.992,2.207a.53.53,0,0,0,.676.113.68.68,0,0,0,.3-.692l-.254-1.628h.072A1.447,1.447,0,0,0,23,24.1V19.927a1.447,1.447,0,0,0-1.346-1.512h-.972V12.966A1.87,1.87,0,0,0,18.943,11Zm0,1.308h11.2a.605.605,0,0,1,.58.654v8.719a.605.605,0,0,1-.58.654H12.955a.546.546,0,0,0-.411.191L9.821,25.588l.229-2.534a.709.709,0,0,0-.147-.5.553.553,0,0,0-.426-.215H7.739a.605.605,0,0,1-.58-.654V12.966a.605.605,0,0,1,.58-.654Zm12.943,7.411h.972a.185.185,0,0,1,.187.2V24.1a.185.185,0,0,1-.187.2h-.767a.552.552,0,0,0-.444.231.713.713,0,0,0-.13.532l.06.388-.869-.967a.546.546,0,0,0-.4-.184H16.039a.185.185,0,0,1-.187-.2v-.45h3.091a1.87,1.87,0,0,0,1.739-1.962Z" transform="translate(-6 -11.004)"/></svg>