<svg xmlns="http://www.w3.org/2000/svg" width="20.198" height="18.098" viewBox="0 0 20.198 18.098"><g transform="translate(-2.5 -7.398)"><path d="M18.714,26.521h7.72a.51.51,0,0,0,0-1.02h-7.72a.51.51,0,0,0,0,1.021Z" transform="translate(-12.364 -14.252)"/><path d="M18.714,41.22h7.72a.51.51,0,0,0,0-1.02h-7.72a.517.517,0,0,0-.51.51A.5.5,0,0,0,18.714,41.22Z" transform="translate(-12.364 -25.825)"/><path d="M18.714,56.021h7.72a.51.51,0,0,0,0-1.02h-7.72a.51.51,0,0,0,0,1.021Z" transform="translate(-12.364 -37.478)"/><path d="M23.774,69.7H18.713a.51.51,0,1,0,0,1.02h5.04a.517.517,0,0,0,.51-.51.5.5,0,0,0-.489-.51Z" transform="translate(-12.363 -49.051)"/><path d="M22.427,14.97l-.935-.935a.912.912,0,0,0-1.3,0L17.919,16.31v-8.4a.517.517,0,0,0-.51-.51H3.01a.517.517,0,0,0-.51.51V24.986a.517.517,0,0,0,.51.51h14.4a.517.517,0,0,0,.51-.51v-4.21l4.508-4.508a.912.912,0,0,0,0-1.3Zm-8.188,7.252.3-1.085.191-.191.787.787-.191.191Zm2-1.213-.787-.787,4-3.977.787.787ZM16.9,24.5H3.521V8.419H16.9v8.91l-3.1,3.127a.972.972,0,0,0-.234.4L13.2,22.221a.861.861,0,0,0,.234.851.851.851,0,0,0,.616.255.865.865,0,0,0,.234-.022l1.361-.361a.962.962,0,0,0,.4-.234l.893-.893V24.5ZM20.96,16.31l-.787-.787.68-.68.787.787Z"/></g></svg>