<svg xmlns="http://www.w3.org/2000/svg" width="18" height="17.946" viewBox="0 0 18 17.946"><defs><style>.a{fill:#344573;fill-rule:evenodd;}</style></defs><path class="a" d="M17.437,12.789a24.778,24.778,0,0,0,1.7,2.972,1.294,1.294,0,0,1,.142,1.556c-.283.637-1.415,1.345-1.911,1.911.071,1.2,4.033,5.165,5.236,5.236.566-.5,1.274-1.556,1.911-1.84a1.277,1.277,0,0,1,1.556.071c.919.637,1.981,1.2,2.972,1.769a1.7,1.7,0,0,1,.779,1.061l.071.071v.142c0,2.759-3.043,4.528-5.518,4.175C18.853,29.2,12.626,22.978,11.919,17.46c-.283-2.477,1.485-5.518,4.246-5.448h.213a2,2,0,0,1,1.061.779Zm-1.345.071c-2.193-.071-3.608,2.477-3.325,4.528.637,5.165,6.65,11.037,11.745,11.674,1.981.283,4.528-1.132,4.528-3.325a1.112,1.112,0,0,0-.353-.566s-2.617-1.415-3.113-1.769c-.424-.283-.424-.142-.708,0-.283.071-1.485,1.627-1.84,1.84-1.415.849-7.287-5.023-6.439-6.439.213-.283,1.769-1.556,1.911-1.769.071-.283.213-.283-.071-.779s-1.769-3.043-1.769-3.043-.071-.213-.566-.353Z" transform="translate(-11.889 -12.01)"/></svg>