<svg xmlns="http://www.w3.org/2000/svg" width="19.217" height="19.217" viewBox="0 0 19.217 19.217"><defs><style>.a{fill:#fff;}</style></defs><g transform="translate(9.609) rotate(45)"><path class="a" d="M6.794,0a6.794,6.794,0,1,0,6.794,6.794A6.794,6.794,0,0,0,6.794,0Zm0,13.125a6.331,6.331,0,1,1,6.331-6.331A6.339,6.339,0,0,1,6.794,13.125Z"/><path class="a" d="M6.579,3.088a.237.237,0,0,0-.232.232V6.038L.773.463H3.491A.237.237,0,0,0,3.722.232.237.237,0,0,0,3.491,0H.217A.115.115,0,0,0,.139.016C.078.046.031.077.016.139A.165.165,0,0,0,0,.217V3.49a.237.237,0,0,0,.232.232A.237.237,0,0,0,.463,3.49V.788L6.023,6.362H3.3a.232.232,0,1,0,0,.463H6.578a.115.115,0,0,0,.077-.016c.062-.031.108-.062.124-.124a.165.165,0,0,0,.016-.077V3.32a.215.215,0,0,0-.216-.232Z" transform="translate(3.397 3.381)"/></g></svg>