<svg xmlns="http://www.w3.org/2000/svg" width="20.566" height="22.97" viewBox="0 0 20.566 22.97"><defs><style>.a{fill:#344573;}</style></defs><path class="a" d="M29.4,7H14.171A2.671,2.671,0,0,0,11.5,9.671V27.3a2.672,2.672,0,0,0,2.671,2.671H29.4A2.672,2.672,0,0,0,32.066,27.3V9.671A2.672,2.672,0,0,0,29.4,7ZM15.239,28.9H14.171a1.6,1.6,0,0,1-1.6-1.6V9.671a1.6,1.6,0,0,1,1.6-1.6h1.068Zm8.013-15.863a2.909,2.909,0,1,1-2.909,2.909,2.909,2.909,0,0,1,2.909-2.909Zm4.925,11H18.326V22.382a.546.546,0,0,1,.051-.23,5.37,5.37,0,0,1,4.874-2.815,5.37,5.37,0,0,1,4.874,2.815.546.546,0,0,1,.051.23Z" transform="translate(-11.5 -7)"/></svg>