<svg xmlns="http://www.w3.org/2000/svg" width="22.614" height="22.97" viewBox="0 0 22.614 22.97"><defs></defs><g transform="translate(-6.605 -7.666)"><path class="a" d="M28.492,34.222v14.7c0-.041,0,.088,0,.022,0-.049-.005.024-.008.035s-.036.088,0,.022c-.01.022-.022.041-.033.062s-.043.052,0,0c-.012.013-.083.081-.02.03-.022.019-.125.065-.056.041-.025.009-.14.024-.066.022a.23.23,0,0,1-.039,0c-.287-.009-.575,0-.86,0H7.89c-.076,0-.155,0-.234,0s.015.011-.022,0a.4.4,0,0,1-.081-.024c.02.009.053.035,0,0-.018-.013-.039-.024-.056-.038.063.052-.015-.022-.02-.03.049.054-.022-.041-.033-.065.031.067-.01-.043-.012-.076.01.07,0,.016.005-.009s0-.076,0-.113V34.213l-.382.4H27.994c.285,0,.568.005.853,0h.036a.4.4,0,0,0,.382-.4.4.4,0,0,0-.382-.4H7.943c-.285,0-.568-.005-.853,0H7.055a.4.4,0,0,0-.382.4V48.84a1.467,1.467,0,0,0,.005.149,1.029,1.029,0,0,0,.982.971c.273.009.547,0,.819,0H28.074c.069,0,.14,0,.209,0a1.034,1.034,0,0,0,.987-1.047V34.207a.4.4,0,0,0-.382-.4.427.427,0,0,0-.395.419Z" transform="translate(-0.05 -19.328)"/><path class="a" d="M24.982,11.711V8.048a.386.386,0,0,0-.382-.382.39.39,0,0,0-.382.382v3.663a.386.386,0,0,0,.382.382.39.39,0,0,0,.382-.382Z" transform="translate(-13.025 0)"/><path class="a" d="M72.852,8.048v3.663a.386.386,0,0,0,.382.382.39.39,0,0,0,.382-.382V8.048a.382.382,0,1,0-.763,0Z" transform="translate(-48.989 0)"/><path class="a" d="M28.442,15.589V20l.382-.382H7.885c-.283,0-.57-.01-.853,0H7L7.378,20V15.842c0-.083.005-.171,0-.254v-.036c0,.071,0,.005.005-.018s.036-.083,0-.02c.01-.02.022-.039.033-.058.033-.061.012-.015,0,0s.076-.073.033-.039.046-.028.043-.028c.056-.039-.02,0,.018-.008a.713.713,0,0,1,.083-.02c-.02,0-.069,0,0,.005H7.6c.334.005.67,0,1.005,0h18.6c.334,0,.667.005,1,0h.008c-.046,0,.086,0,.02,0s.051.012.051.012c.018,0,.063.028,0,0,.02.01.039.022.058.033.061.033.015.012,0,0s.073.076.039.033.028.046.028.043c.01.015.025.063,0,0,.008.022.012.043.02.066.033.1,0-.064,0,.044a.382.382,0,0,0,.763,0,1,1,0,0,0-.987-.987H7.6a1,1,0,0,0-.985.916c-.028.305-.005.619-.005.923V20A.388.388,0,0,0,7,20.384H27.935c.285,0,.568.005.853,0h.036A.388.388,0,0,0,29.2,20V15.59a.382.382,0,0,0-.763,0Z" transform="translate(0 -5.129)"/><path class="a" d="M30.136,52.271l1.1,1.1,1.738,1.738.4.4a.39.39,0,0,0,.539,0l.639-.639,1.531-1.531,1.844-1.844,1.6-1.6c.259-.259.529-.514.782-.782,0-.005.008-.008.01-.01a.381.381,0,0,0-.539-.539l-5.617,5.617c-.258.259-.538.509-.779.784,0,.005-.008.008-.01.01h.539l-1.1-1.1-1.738-1.738-.4-.4a.39.39,0,0,0-.539,0,.38.38,0,0,0,0,.537Z" transform="translate(-17.319 -28.503)"/></g></svg>