<svg xmlns="http://www.w3.org/2000/svg" width="22.614" height="22.97" viewBox="0 0 22.614 22.97"><defs><style>.a{fill:#344573;}</style></defs><g transform="translate(-6.637 -4.236)"><path class="a" d="M29.248,48.933V37.164a.39.39,0,0,0-.382-.382H7.909c-.285,0-.57-.005-.853,0H7.02a.388.388,0,0,0-.382.382v12.7c0,.132,0,.267,0,.4a1,1,0,0,0,1.008,1c.318,0,.64,0,.957,0H28.247a1,1,0,0,0,1-1c0-.442,0-.886,0-1.328Zm-6.116-7.862c-.005,0-.008.008-.01.01-.253.267-.521.521-.782.782l-1.6,1.6L18.89,45.312c-.514.514-1.024,1.026-1.536,1.535l-.64.64a.518.518,0,0,1-.721,0l-.4-.4-1.74-1.74-1.1-1.1a.51.51,0,0,1,.721-.721l.4.4q.871.871,1.74,1.742l.733.733c.145-.143.293-.285.438-.428l1.6-1.6q.924-.924,1.845-1.845l1.533-1.533.64-.64a.52.52,0,0,1,.721,0,.512.512,0,0,1,0,.717Z" transform="translate(0 -24.059)"/><path class="a" d="M29.248,7.391a1.008,1.008,0,0,0-.988-.965H25.047V5a.764.764,0,1,0-1.528,0V6.426H12.367V5a.764.764,0,1,0-1.528,0V6.426H7.807a1.485,1.485,0,0,0-.487.049,1.007,1.007,0,0,0-.682.962c0,.132,0,.265,0,.4v3.488a.388.388,0,0,0,.382.382H27.978c.285,0,.57.005.853,0h.036a.388.388,0,0,0,.382-.382V7.391Z" transform="translate(0)"/></g></svg>